<svg width="17" height="16" viewBox="0 0 17 16" fill="none" xmlns="http://www.w3.org/2000/svg">
<path d="M8.30054 16C4.30769 16 0 13.4955 0 8C0 2.50447 4.30769 0 8.30054 0C10.5188 0 12.5653 0.729875 14.0823 2.06082C15.7281 3.52057 16.6011 5.5814 16.6011 8C16.6011 10.4186 15.7281 12.4651 14.0823 13.9249C12.5653 15.2558 10.5045 16 8.30054 16Z" fill="url(#paint0_radial_840_60772)"/>
<path d="M15.1542 3.24414C15.917 4.47491 16.3148 5.94038 16.3148 7.57044C16.3148 9.98904 15.4419 12.0356 13.7961 13.4953C12.2791 14.8263 10.2182 15.5704 8.01431 15.5704C5.4297 15.5704 2.71914 14.5186 1.11914 12.2874C2.65903 14.8148 5.55563 15.9998 8.30054 15.9998C10.5045 15.9998 12.5653 15.2556 14.0823 13.9246C15.7281 12.4649 16.6011 10.4184 16.6011 7.99978C16.6011 6.17652 16.1045 4.55648 15.1542 3.24414Z" fill="#EB8F00"/>
<path d="M8.41501 10.9196C7.90266 10.9196 7.39461 10.8338 6.91232 10.662C6.3184 10.4574 5.67297 10.7737 5.46831 11.3662C5.35239 11.701 5.39962 12.0703 5.59569 12.3651C6.21107 13.3096 7.18424 13.8248 8.41501 13.8248C9.64577 13.8248 10.6189 13.3096 11.2343 12.3651C11.5821 11.8427 11.439 11.1372 10.9166 10.7894C10.6218 10.5933 10.2526 10.5461 9.91769 10.662C9.4354 10.8338 8.92735 10.9196 8.41501 10.9196Z" fill="#422B0D"/>
<path opacity="0.8" d="M4.09297 11.7637C5.47616 11.7637 6.59745 10.7065 6.59745 9.40237C6.59745 8.09823 5.47616 7.04102 4.09297 7.04102C2.70979 7.04102 1.5885 8.09823 1.5885 9.40237C1.5885 10.7065 2.70979 11.7637 4.09297 11.7637Z" fill="url(#paint1_radial_840_60772)"/>
<path opacity="0.8" d="M12.737 11.7637C14.1202 11.7637 15.2415 10.7065 15.2415 9.40237C15.2415 8.09823 14.1202 7.04102 12.737 7.04102C11.3538 7.04102 10.2325 8.09823 10.2325 9.40237C10.2325 10.7065 11.3538 11.7637 12.737 11.7637Z" fill="url(#paint2_radial_840_60772)"/>
<path d="M14.5961 3.91689C13.4211 3.5863 12.5581 4.54659 12.5581 4.54659C12.5581 4.54659 12.458 3.4575 11.4533 3.11546C10.2483 2.70186 8.97602 3.36018 8.90017 5.06752C8.81431 7.01242 11.3875 9.56555 11.3875 9.56555C11.3875 9.56555 14.5817 8.70687 15.6279 6.88648C16.4794 5.40526 15.4848 4.16591 14.5961 3.91689Z" fill="#F44336"/>
<path d="M14.5961 3.91703C14.4516 3.87839 14.3027 3.86121 14.1539 3.86408C14.5746 4.14601 14.9081 4.53957 15.1156 5.00039C15.3174 5.48554 15.3704 6.11238 14.9868 6.86086C14.1553 8.48805 11.595 9.49556 11.409 9.56569C11.6423 9.49985 14.6276 8.64118 15.6337 6.89091C16.4795 5.4054 15.4848 4.16604 14.5961 3.91703Z" fill="#C62828"/>
<path d="M12.5568 4.72255C12.5482 4.57372 12.5253 4.42488 12.491 4.27891C12.408 3.85815 12.1475 3.49322 11.7754 3.27712C11.5207 3.12828 11.2387 3.03383 10.9468 2.99805C10.9468 2.99805 11.3761 3.12828 11.6824 3.7222C11.8384 4.03418 11.9314 4.37479 11.9543 4.72255C11.9529 4.84993 11.9758 4.97443 12.0216 5.09322C12.0731 5.212 12.199 5.28213 12.3278 5.26209C12.5239 5.212 12.5668 4.96728 12.5568 4.72255Z" fill="#C62828"/>
<path d="M9.77453 4.03991C10.0422 3.70789 10.4815 3.39161 10.9023 3.68356C11.1255 3.83955 11.1284 4.28177 10.855 4.48069C10.3942 4.81844 10.3727 5.04026 10.3212 5.22631C10.2583 5.44814 10.2182 5.71289 10.0164 5.82452C9.8146 5.93615 9.63714 5.82452 9.53124 5.50538C9.35092 5.00735 9.44251 4.45207 9.77453 4.03991Z" fill="#FF847A"/>
<path d="M5.02613 3.08709C3.86548 3.46348 3.67944 4.74147 3.67944 4.74147C3.67944 4.74147 2.9925 3.8828 1.96209 4.16043C0.732747 4.48387 0.0386506 5.73754 0.915931 7.19872C1.93203 8.87314 5.48695 9.56723 5.48695 9.56723C5.48695 9.56723 7.66942 7.0828 7.53203 4.98763C7.41897 3.28172 5.90341 2.8023 5.02613 3.08709Z" fill="#F44336"/>
<path d="M5.02617 3.0871C4.88449 3.13289 4.74853 3.19873 4.62402 3.28173C5.13064 3.28316 5.62581 3.42627 6.05515 3.69533C6.49308 3.98155 6.88377 4.47958 6.98109 5.31679C7.19147 7.13289 5.61723 9.38978 5.49558 9.55436C5.65443 9.37118 7.66231 7.00123 7.53064 4.9862C7.41901 3.28173 5.90345 2.8023 5.02617 3.0871Z" fill="#C62828"/>
<path d="M3.77821 4.89146C3.68948 4.76982 3.5893 4.65819 3.47767 4.55801C3.17713 4.25175 2.76068 4.0886 2.33277 4.1115C2.03939 4.12867 1.75173 4.20452 1.4884 4.33762C1.4884 4.33762 1.91774 4.20738 2.50164 4.53368C2.80647 4.70971 3.07123 4.94585 3.28304 5.22635C3.35173 5.33368 3.44046 5.42527 3.54493 5.49826C3.6537 5.56839 3.79681 5.55551 3.8927 5.46821C4.02007 5.31365 3.92132 5.08753 3.77821 4.89146Z" fill="#C62828"/>
<path d="M1.08762 5.86738C1.09335 5.74717 1.11481 5.62839 1.15059 5.5139C1.20927 5.27347 1.37957 5.07454 1.60712 4.97865C1.82608 4.90996 2.12948 4.95862 2.24683 5.17758C2.35131 5.37221 2.27546 5.60692 2.21821 5.82159C2.16669 6.06774 2.13807 6.31962 2.13234 6.5715C2.13377 6.77758 1.96919 6.94502 1.76311 6.94788C1.56848 6.94788 1.41678 6.77901 1.30801 6.61729C1.15631 6.3969 1.07903 6.135 1.08762 5.86738Z" fill="#FF847A"/>
<defs>
<radialGradient id="paint0_radial_840_60772" cx="0" cy="0" r="1" gradientUnits="userSpaceOnUse" gradientTransform="translate(8.30054 8) scale(8.15166)">
<stop offset="0.5" stop-color="#FDE030"/>
<stop offset="0.92" stop-color="#F7C02B"/>
<stop offset="1" stop-color="#F4A223"/>
</radialGradient>
<radialGradient id="paint1_radial_840_60772" cx="0" cy="0" r="1" gradientUnits="userSpaceOnUse" gradientTransform="translate(4.09297 8.31623) scale(2.72943 2.45091)">
<stop stop-color="#ED7770"/>
<stop offset="0.9" stop-color="#ED7770" stop-opacity="0"/>
</radialGradient>
<radialGradient id="paint2_radial_840_60772" cx="0" cy="0" r="1" gradientUnits="userSpaceOnUse" gradientTransform="translate(16.8186 360.728) scale(2.78497)">
<stop stop-color="#ED7770"/>
<stop offset="0.9" stop-color="#ED7770" stop-opacity="0"/>
</radialGradient>
</defs>
</svg>
