<svg width="17" height="16" viewBox="0 0 17 16" fill="none" xmlns="http://www.w3.org/2000/svg">
<path d="M8.30054 16C4.30769 16 0 13.4955 0 8C0 2.50447 4.30769 0 8.30054 0C10.5188 0 12.5653 0.729875 14.0823 2.06082C15.7281 3.52057 16.6011 5.5814 16.6011 8C16.6011 10.4186 15.7281 12.4651 14.0823 13.9249C12.5653 15.2558 10.5045 16 8.30054 16Z" fill="url(#paint0_radial_840_60807)"/>
<path d="M5.49555 4.85742C4.89591 4.85742 4.35065 5.36404 4.35065 6.20554C4.35065 7.04705 4.89591 7.55223 5.49555 7.55223C6.09662 7.55223 6.64045 7.04562 6.64045 6.20554C6.64045 5.36547 6.10235 4.85742 5.49555 4.85742Z" fill="#422B0D"/>
<path d="M5.4454 5.4195C5.24218 5.32218 4.99746 5.40805 4.89871 5.61127C4.82286 5.77013 4.85721 5.96047 4.98458 6.08354C5.1878 6.18086 5.43252 6.09499 5.53127 5.89177C5.60712 5.73292 5.57277 5.54258 5.4454 5.4195Z" fill="#896024"/>
<path d="M10.991 4.85742C10.3914 4.85742 9.84613 5.36404 9.84613 6.20554C9.84613 7.04705 10.3914 7.55223 10.991 7.55223C11.5907 7.55223 12.1359 7.04562 12.1359 6.20554C12.1359 5.36547 11.5907 4.85742 10.991 4.85742Z" fill="#422B0D"/>
<path d="M10.9338 5.4195C10.7306 5.32218 10.4859 5.40805 10.3871 5.61127C10.3113 5.77013 10.3456 5.96047 10.473 6.08354C10.6762 6.18086 10.9209 6.09499 11.0197 5.89177C11.0955 5.73292 11.0612 5.54258 10.9338 5.4195Z" fill="#896024"/>
<path d="M8.21468 12.1088C6.91665 12.1189 5.67729 11.5736 4.8086 10.609C4.74277 10.5332 4.72702 10.4258 4.76853 10.3342C4.81003 10.2412 4.90162 10.1811 5.00323 10.1797C5.04903 10.1797 5.09482 10.1926 5.13489 10.2155C5.8247 10.6119 6.97819 11.1042 8.21468 11.1042H8.23472C9.46978 11.1042 10.6247 10.6119 11.3131 10.2155C11.3531 10.1926 11.3989 10.1797 11.4447 10.1797C11.5463 10.1811 11.6379 10.2412 11.6794 10.3342C11.7224 10.4258 11.7066 10.5332 11.6394 10.609C10.7707 11.5736 9.52845 12.1203 8.23042 12.1088" fill="#422B0D"/>
<path d="M15.1542 3.24414C15.917 4.47491 16.3148 5.94038 16.3148 7.57044C16.3148 9.98904 15.4419 12.0356 13.7961 13.4953C12.2791 14.8263 10.2182 15.5704 8.01431 15.5704C5.4297 15.5704 2.71914 14.5186 1.11914 12.2874C2.65903 14.8148 5.55563 15.9998 8.30054 15.9998C10.5045 15.9998 12.5653 15.2556 14.0823 13.9246C15.7281 12.4649 16.6011 10.4184 16.6011 7.99978C16.6011 6.17652 16.1045 4.55648 15.1542 3.24414Z" fill="#EB8F00"/>
<defs>
<radialGradient id="paint0_radial_840_60807" cx="0" cy="0" r="1" gradientUnits="userSpaceOnUse" gradientTransform="translate(8.30054 8) scale(8.15166)">
<stop offset="0.5" stop-color="#FDE030"/>
<stop offset="0.92" stop-color="#F7C02B"/>
<stop offset="1" stop-color="#F4A223"/>
</radialGradient>
</defs>
</svg>
