<svg width="17" height="16" viewBox="0 0 17 16" fill="none" xmlns="http://www.w3.org/2000/svg">
<path d="M8.30054 16C4.30769 16 0 13.4955 0 8C0 2.50447 4.30769 0 8.30054 0C10.5188 0 12.5653 0.729875 14.0823 2.06082C15.7281 3.52057 16.6011 5.5814 16.6011 8C16.6011 10.4186 15.7281 12.4651 14.0823 13.9249C12.5653 15.2558 10.5045 16 8.30054 16Z" fill="url(#paint0_radial_840_60820)"/>
<path d="M15.1542 3.24463C15.917 4.4754 16.3148 5.94087 16.3148 7.57093C16.3148 9.98953 15.4419 12.036 13.7961 13.4958C12.2791 14.8267 10.2182 15.5709 8.01431 15.5709C5.4297 15.5709 2.71914 14.519 1.11914 12.2879C2.65903 14.8153 5.55563 16.0003 8.30054 16.0003C10.5045 16.0003 12.5653 15.2561 14.0823 13.9251C15.7281 12.4654 16.6011 10.4189 16.6011 8.00026C16.6011 6.17701 16.1045 4.55697 15.1542 3.24463Z" fill="#EB8F00"/>
<path d="M7.41055 8.50265L7.38193 8.48262L7.36762 8.47117C6.85098 8.10051 5.57871 7.07582 5.04919 6.71375C4.82307 6.54773 4.51109 6.56491 4.30501 6.75668C4.08461 6.98423 4.09177 7.3463 4.31789 7.5667C4.33649 7.58387 4.3551 7.60104 4.37656 7.61535C4.39087 7.62967 4.40518 7.62967 4.4195 7.64398L5.97799 8.33235C5.86064 8.33235 5.74472 8.33235 5.63595 8.34523L5.13506 8.38816C4.96332 8.41679 4.77728 8.44541 4.59123 8.47403C4.40518 8.50265 4.19052 8.5599 3.97585 8.61714C3.79839 8.66723 3.63524 8.76026 3.50357 8.88906C3.37907 9.00069 3.29892 9.15239 3.27459 9.3184C3.25742 9.47725 3.2932 9.63897 3.37477 9.77636C3.44347 9.89943 3.55653 9.99103 3.68962 10.034C3.82272 10.0769 3.9644 10.0912 4.10465 10.0769C4.25778 10.0569 4.40375 10.0025 4.53399 9.91947C4.72003 9.81929 4.90608 9.71911 5.07781 9.64756C5.24096 9.57027 5.40984 9.50301 5.58157 9.44577C5.74186 9.38995 5.90357 9.34129 6.06815 9.30265C6.24275 9.25972 6.41878 9.2268 6.59767 9.20248C6.78372 9.17385 6.99839 9.15954 7.22737 9.14523C7.39195 9.11231 7.51073 8.9692 7.51359 8.80176C7.52647 8.69156 7.48926 8.58137 7.41055 8.50265Z" fill="#422B0D"/>
<path d="M13.4385 9.31693C13.4142 9.15092 13.3341 8.99922 13.2095 8.88759C13.0779 8.75879 12.9147 8.66577 12.7373 8.61568C12.5226 8.55843 12.3222 8.5155 12.1219 8.47257C11.9215 8.42963 11.7498 8.41532 11.5781 8.3867L11.0772 8.34377C10.9641 8.33375 10.8439 8.33088 10.7222 8.33088L12.2793 7.64251C12.2936 7.6282 12.3079 7.6282 12.3222 7.61389C12.577 7.42641 12.6314 7.0672 12.4425 6.81389C12.4267 6.79385 12.411 6.77382 12.3938 6.75521C12.1877 6.56344 11.8757 6.54627 11.6496 6.71228C11.1344 7.07436 9.86214 8.09904 9.3455 8.4697L9.33119 8.48115L9.30257 8.50119C9.22385 8.5799 9.18664 8.6901 9.19952 8.80029C9.20239 8.96774 9.32117 9.11085 9.48575 9.14376C9.71473 9.15808 9.9294 9.17239 10.1154 9.20101C10.2943 9.22534 10.4718 9.25969 10.6478 9.30262C10.8124 9.34126 10.9741 9.38992 11.1344 9.44573C11.3047 9.50298 11.4722 9.56881 11.6353 9.64609C11.807 9.71765 11.9931 9.81783 12.1791 9.918C12.3079 10.0039 12.4553 10.0568 12.6085 10.0754C12.7487 10.0897 12.8904 10.0754 13.0235 10.0325C13.1566 9.98956 13.2696 9.89797 13.3383 9.77489C13.4199 9.6375 13.4557 9.47579 13.4385 9.31693Z" fill="#422B0D"/>
<path d="M8.35796 10.9053C9.90357 10.9053 10.9054 12.0359 11.1773 12.5654C11.2775 12.7657 11.2775 12.9375 11.1916 13.009C11.1 13.0663 10.9826 13.0663 10.891 13.009C10.8453 12.9904 10.8023 12.9661 10.7622 12.9375C10.061 12.4337 9.22093 12.1589 8.35796 12.1504C7.49785 12.1618 6.65921 12.4309 5.95366 12.9232C5.91359 12.9518 5.87066 12.9761 5.82486 12.9947C5.73327 13.052 5.61592 13.052 5.52432 12.9947C5.43846 12.9089 5.43846 12.7514 5.53864 12.5511C5.81055 12.0359 6.81234 10.9053 8.35796 10.9053Z" fill="#422B0D"/>
<path d="M3.11978 5.12358C2.80493 5.18082 2.79062 5.63878 3.13409 5.65309C3.89259 5.66311 4.62532 5.38118 5.1806 4.86597C5.39241 4.68279 5.5713 4.46526 5.71012 4.22197C5.79312 4.10318 5.7645 3.94003 5.64572 3.85703C5.52693 3.77402 5.36379 3.80265 5.28078 3.92143L5.26647 3.93574C4.70547 4.56257 3.9484 4.98189 3.11978 5.12358Z" fill="#422B0D"/>
<path d="M11.2917 3.92143C11.2087 3.80265 11.0455 3.77402 10.9267 3.85703C10.808 3.94003 10.7793 4.10318 10.8623 4.22197C11.0012 4.46526 11.18 4.68279 11.3919 4.86597C11.95 5.37689 12.6813 5.65882 13.4384 5.65309C13.7961 5.63878 13.7675 5.18082 13.4527 5.12358C12.614 4.98619 11.8512 4.56114 11.2917 3.92143Z" fill="#422B0D"/>
<defs>
<radialGradient id="paint0_radial_840_60820" cx="0" cy="0" r="1" gradientUnits="userSpaceOnUse" gradientTransform="translate(8.30054 8) scale(8.15166)">
<stop offset="0.5" stop-color="#FDE030"/>
<stop offset="0.92" stop-color="#F7C02B"/>
<stop offset="1" stop-color="#F4A223"/>
</radialGradient>
</defs>
</svg>
