<svg width="17" height="16" viewBox="0 0 17 16" fill="none" xmlns="http://www.w3.org/2000/svg">
<path d="M8.30054 16C4.30769 16 0 13.4955 0 8C0 2.50447 4.30769 0 8.30054 0C10.5188 0 12.5653 0.729875 14.0823 2.06082C15.7281 3.52057 16.6011 5.5814 16.6011 8C16.6011 10.4186 15.7281 12.4651 14.0823 13.9249C12.5624 15.2558 10.5045 16 8.30054 16Z" fill="url(#paint0_radial_840_60791)"/>
<path d="M5.54987 4.85693C4.95023 4.85693 4.40497 5.36355 4.40497 6.20506C4.40497 7.04656 4.95023 7.55175 5.54987 7.55175C6.15094 7.55175 6.69477 7.04513 6.69477 6.20506C6.69477 5.36498 6.15667 4.85693 5.54987 4.85693Z" fill="#422B0D"/>
<path d="M5.49966 5.4195C5.29644 5.32218 5.05172 5.40805 4.95297 5.61127C4.87712 5.77013 4.91147 5.96047 5.03884 6.08354C5.24206 6.18086 5.48678 6.09499 5.58553 5.89177C5.66138 5.73292 5.62703 5.54258 5.49966 5.4195Z" fill="#896024"/>
<path d="M11.0456 4.85693C10.446 4.85693 9.9007 5.36355 9.9007 6.20506C9.9007 7.04656 10.446 7.55175 11.0456 7.55175C11.6452 7.55175 12.1905 7.04513 12.1905 6.20506C12.1905 5.36498 11.6452 4.85693 11.0456 4.85693Z" fill="#422B0D"/>
<path d="M10.9882 5.4195C10.785 5.32218 10.5403 5.40805 10.4416 5.61127C10.3657 5.77013 10.4001 5.96047 10.5274 6.08354C10.7306 6.18086 10.9754 6.09499 11.0741 5.89177C11.15 5.73292 11.1156 5.54258 10.9882 5.4195Z" fill="#896024"/>
<path d="M15.2086 3.24463C15.9714 4.4754 16.3692 5.94087 16.3692 7.57093C16.3692 9.98953 15.4962 12.036 13.8504 13.4958C12.3335 14.8267 10.2726 15.5709 8.06869 15.5709C5.48408 15.5709 2.77352 14.519 1.17352 12.2879C2.71342 14.8153 5.61002 16.0003 8.35492 16.0003C10.5589 16.0003 12.6197 15.2561 14.1367 13.9251C15.7825 12.4654 16.6555 10.4189 16.6555 8.00027C16.6555 6.17701 16.1589 4.55697 15.2086 3.24463Z" fill="#EB8F00"/>
<path d="M13.8606 9.24796C13.6603 8.88589 13.2252 8.72703 12.8388 8.87301C11.3705 9.30091 9.84776 9.51415 8.31789 9.507C6.78801 9.51415 5.2653 9.30091 3.79696 8.87301C3.41199 8.72703 2.97692 8.88446 2.77657 9.2451C2.58193 9.60431 2.72218 10.0208 2.88676 10.38C3.80555 12.3979 5.83059 13.6057 8.30644 13.6129H8.32934C10.8052 13.6129 12.8302 12.3979 13.7504 10.38C13.9136 10.0179 14.0553 9.60718 13.8606 9.24796Z" fill="#422B0D"/>
<path d="M10.6089 13.0435C10.5559 12.9948 10.5015 12.9505 10.4472 12.9004C9.86326 12.3866 9.10763 12.1104 8.3291 12.1261C7.52766 12.1132 6.7477 12.3794 6.1223 12.8803C6.06791 12.9247 6.01067 12.9676 5.95772 13.0234C5.90477 13.0793 5.87614 13.1193 5.8418 13.1666C6.62892 13.4742 7.46756 13.6317 8.31335 13.6274H8.33625C9.14627 13.6274 9.94913 13.4828 10.7076 13.198C10.679 13.1437 10.6461 13.0921 10.6089 13.0435Z" fill="#ED7770"/>
<path d="M12.8387 8.87312C11.3704 9.30103 9.84766 9.51427 8.31779 9.50711C6.78791 9.51427 5.26519 9.30103 3.79686 8.87312C3.41188 8.72715 2.97682 8.88457 2.77646 9.24522C2.74784 9.2996 2.72494 9.35685 2.71063 9.41552C2.75786 9.43985 2.81224 9.46418 2.87664 9.48994C4.59972 10.3529 6.50455 10.7908 8.43085 10.7679C10.2784 10.7894 12.1046 10.3873 13.7732 9.59441C13.8405 9.56579 13.8963 9.5386 13.9464 9.51284C13.935 9.41981 13.9049 9.32822 13.8605 9.24522C13.6602 8.88457 13.2251 8.72572 12.8387 8.87312Z" fill="white"/>
<path d="M13.8664 9.24939C13.6632 8.88732 13.2267 8.72703 12.8374 8.87301C11.3691 9.30091 9.84633 9.51415 8.31789 9.507C6.78802 9.51415 5.2653 9.30091 3.79696 8.87301C3.41199 8.72703 2.97692 8.88446 2.77657 9.2451C2.58193 9.60431 2.72218 10.0208 2.88676 10.38C2.95975 10.5417 3.04132 10.7006 3.13149 10.8537C3.13149 10.8537 2.83095 9.74027 3.09141 9.41684C3.18014 9.27945 3.32898 9.19358 3.49213 9.18499C3.55939 9.18499 3.62522 9.19644 3.68963 9.21648C5.18372 9.65583 6.73363 9.87766 8.29213 9.8748H8.34222C9.90072 9.87766 11.4506 9.65583 12.9447 9.21648C13.0091 9.19644 13.075 9.18499 13.1422 9.18499C13.3054 9.19358 13.4556 9.27945 13.5444 9.41684C13.8091 9.74027 13.5043 10.858 13.5043 10.858C13.593 10.7049 13.6818 10.5474 13.7562 10.3843C13.9193 10.0251 14.061 9.61004 13.8664 9.24939Z" fill="#EB8F00"/>
<defs>
<radialGradient id="paint0_radial_840_60791" cx="0" cy="0" r="1" gradientUnits="userSpaceOnUse" gradientTransform="translate(8.30054 8) scale(8.15166)">
<stop offset="0.5" stop-color="#FDE030"/>
<stop offset="0.92" stop-color="#F7C02B"/>
<stop offset="1" stop-color="#F4A223"/>
</radialGradient>
</defs>
</svg>
