<svg width="17" height="16" viewBox="0 0 17 16" fill="none" xmlns="http://www.w3.org/2000/svg">
<path d="M8.30054 16C4.30769 16 0 13.4955 0 8C0 2.50447 4.30769 0 8.30054 0C10.5188 0 12.5653 0.729875 14.0823 2.06082C15.7281 3.52057 16.6011 5.5814 16.6011 8C16.6011 10.4186 15.7281 12.4651 14.0823 13.9249C12.5653 15.2558 10.5045 16 8.30054 16Z" fill="url(#paint0_radial_840_60834)"/>
<path d="M15.1541 3.24463C15.9169 4.4754 16.3148 5.94087 16.3148 7.57093C16.3148 9.98953 15.4418 12.036 13.796 13.4958C12.279 14.8267 10.2182 15.5709 8.01425 15.5709C5.42963 15.5709 2.71908 14.519 1.11908 12.2879C2.65897 14.8153 5.55557 16.0003 8.30047 16.0003C10.5044 16.0003 12.5652 15.2561 14.0822 13.9251C15.728 12.4654 16.601 10.4189 16.601 8.00026C16.601 6.17701 16.1044 4.55697 15.1541 3.24463Z" fill="#EB8F00"/>
<path d="M4.33637 6.39731C4.38503 6.39874 4.43226 6.40303 4.47949 6.41162C4.50382 6.40876 4.52958 6.41448 4.55104 6.42593H4.7514C4.80865 6.4288 4.86732 6.42307 4.92314 6.41162C4.98038 6.41162 5.03763 6.383 5.10918 6.383C5.16929 6.37298 5.22654 6.35295 5.28092 6.32575C5.39684 6.29141 5.50417 6.23273 5.59577 6.15402C5.64156 6.11967 5.68593 6.08103 5.72457 6.03953C5.75319 5.99659 5.79612 5.95366 5.82475 5.91073L5.91061 5.78193C5.93494 5.74185 5.95498 5.69892 5.96786 5.65312C5.98217 5.61019 5.99648 5.58157 6.01079 5.53863C6.02367 5.50142 6.04371 5.46851 6.06804 5.43846L6.12528 5.32397C6.24836 5.05634 6.56321 4.93899 6.83083 5.06207C6.83369 5.0635 6.83798 5.06493 6.84085 5.06636C7.00972 5.14937 7.12707 5.30965 7.15569 5.4957C7.15713 5.55724 7.16142 5.62021 7.17001 5.68175V5.89642C7.16142 5.9923 7.14711 6.08819 7.12707 6.18264C7.09988 6.2957 7.06124 6.4059 7.01258 6.5118C6.93244 6.70786 6.81509 6.88819 6.66911 7.04132L6.59756 7.12719L6.49738 7.18443C6.38002 7.28318 6.25552 7.37334 6.12528 7.45634C5.99219 7.52504 5.85337 7.58371 5.71026 7.62808L5.61008 7.6567L5.5099 7.67101C5.44407 7.68676 5.3768 7.69677 5.30954 7.69964C5.18074 7.71395 5.05194 7.71395 4.92314 7.69964C4.81294 7.69391 4.70274 7.6796 4.59398 7.6567C4.49666 7.63667 4.40078 7.60804 4.30775 7.57083C4.26911 7.55939 4.23047 7.54507 4.19326 7.5279C4.16464 7.51359 4.15033 7.49928 4.12171 7.48497C4.07734 7.4635 4.03441 7.43917 3.9929 7.41341C3.73673 7.25026 3.66088 6.91252 3.82117 6.65491C3.93423 6.48318 4.13029 6.38443 4.33637 6.39731Z" fill="#422B0D"/>
<path d="M12.0415 10.3184C10.8465 9.96065 9.60425 9.78749 8.35774 9.80323C7.09405 9.79178 5.83609 9.9721 4.62679 10.3399C4.20747 11.0226 3.98421 11.8068 3.97849 12.6082C3.97133 13.112 4.37348 13.5256 4.87724 13.5327C5.02178 13.5342 5.16632 13.5027 5.29512 13.4383C6.25541 12.9889 7.2987 12.7456 8.35774 12.7227C9.4182 12.7428 10.4615 12.9875 11.4203 13.4383C11.8712 13.6615 12.4178 13.4784 12.6425 13.0261C12.7069 12.8959 12.7398 12.7528 12.737 12.6082C12.7284 11.7939 12.4865 10.9997 12.0415 10.3184Z" fill="#422B0D"/>
<path d="M12.0415 10.3183C11.1771 8.95871 9.65867 8.61523 8.35778 8.61523C6.94383 8.61523 5.45259 8.96872 4.62683 10.3326C5.83613 9.96765 7.09409 9.78876 8.35778 9.80307C9.60429 9.78733 10.8465 9.96049 12.0415 10.3183Z" fill="white"/>
<path d="M8.34911 8.40088C8.85286 8.40517 9.35519 8.46814 9.84607 8.58693C10.3441 8.70571 10.8149 8.91608 11.2357 9.20803C11.6507 9.51 11.9928 9.90213 12.2375 10.3529C12.4822 10.7923 12.6554 11.2689 12.747 11.7626C12.7928 12.0088 12.8171 12.2578 12.8171 12.5082C12.8228 12.6399 12.8085 12.7701 12.7742 12.8975C12.7355 13.0263 12.6711 13.1451 12.5867 13.2481C12.4149 13.4513 12.1674 13.5773 11.9012 13.5959C11.7709 13.603 11.6393 13.5859 11.5148 13.5458C11.3903 13.5 11.2872 13.4442 11.1742 13.4027C10.2869 12.9934 9.32657 12.7615 8.34911 12.7229C9.33086 12.7243 10.304 12.9189 11.2114 13.2953C11.3259 13.3397 11.4403 13.3955 11.5462 13.4299C11.6564 13.4599 11.7709 13.4699 11.884 13.4599C12.1101 13.437 12.3162 13.324 12.4564 13.1451C12.5237 13.0578 12.5724 12.9562 12.5996 12.8488C12.6253 12.7386 12.6339 12.6241 12.6239 12.5111C12.6139 12.2706 12.5824 12.0302 12.5309 11.7955C12.4264 11.3304 12.2475 10.8853 11.9985 10.4789C11.7595 10.0753 11.4332 9.7304 11.0439 9.4685C10.6504 9.21662 10.2139 9.03916 9.75591 8.94757C9.29079 8.85455 8.81709 8.81304 8.34338 8.82592L8.34911 8.40088Z" fill="#EB8F00"/>
<path d="M8.38499 8.83022C7.91129 8.81734 7.43759 8.85884 6.9739 8.95186C6.51594 9.04346 6.07945 9.22092 5.68589 9.47279C5.29662 9.73469 4.97032 10.0796 4.73132 10.4832C4.48374 10.8896 4.30342 11.3347 4.19894 11.7998C4.14742 12.0345 4.11594 12.2749 4.10592 12.5154C4.0959 12.6284 4.10449 12.7429 4.13025 12.8531C4.15887 12.9604 4.20753 13.0606 4.27336 13.1494C4.41361 13.3282 4.6197 13.4413 4.84581 13.4642C4.95887 13.4742 5.07336 13.4642 5.18356 13.4342C5.29089 13.3998 5.40538 13.344 5.51844 13.2996C6.42578 12.9232 7.39895 12.7286 8.3807 12.7272C7.40467 12.763 6.44438 12.9905 5.55565 13.3969C5.44403 13.4456 5.33955 13.5014 5.21505 13.5401C5.09054 13.5801 4.95887 13.5973 4.82864 13.5901C4.56102 13.5715 4.31344 13.4456 4.1417 13.241C4.05583 13.1379 3.99143 13.0191 3.95279 12.8903C3.91844 12.763 3.90413 12.6327 3.90986 12.5011C3.91129 12.2506 3.93562 12.0016 3.97998 11.7554C4.07444 11.2617 4.2476 10.7866 4.49376 10.3486C4.73848 9.89784 5.08052 9.50571 5.49555 9.20374C5.91773 8.91322 6.39 8.70428 6.88803 8.58693C7.37891 8.46814 7.88123 8.40517 8.38499 8.40088V8.83022Z" fill="#EB8F00"/>
<path d="M4.45361 3.93255C4.15736 4.05563 4.2418 4.50501 4.58098 4.44633C5.32373 4.2932 5.97919 3.86243 6.41139 3.23989C6.57883 3.0152 6.70763 2.76475 6.79207 2.49857C6.84788 2.36547 6.78491 2.21091 6.65039 2.15509C6.51586 2.09928 6.36273 2.16225 6.30692 2.29678L6.29547 2.31395C5.8833 3.04669 5.23357 3.61628 4.45361 3.93255Z" fill="#422B0D"/>
<path d="M12.3734 6.39731C12.3248 6.39874 12.2776 6.40303 12.2303 6.41162C12.206 6.40876 12.1802 6.41448 12.1588 6.42593H11.9584C11.9012 6.4288 11.8425 6.42307 11.7867 6.41162C11.7294 6.41162 11.6722 6.383 11.6006 6.383C11.5405 6.37298 11.4833 6.35295 11.4289 6.32575C11.313 6.29141 11.2056 6.23273 11.114 6.15402C11.0683 6.11967 11.0239 6.08103 10.9852 6.03953C10.9566 5.99659 10.9137 5.95366 10.8851 5.91073L10.7992 5.78193C10.7749 5.74185 10.7548 5.69892 10.742 5.65312C10.7276 5.61019 10.7133 5.58157 10.699 5.53863C10.6876 5.50286 10.6704 5.46851 10.6475 5.43846L10.5903 5.32397C10.4672 5.05634 10.1523 4.93899 9.88471 5.06207C9.88185 5.0635 9.87755 5.06493 9.87469 5.06636C9.70582 5.14937 9.58847 5.30965 9.55984 5.4957C9.55841 5.55724 9.55412 5.62021 9.54553 5.68175V5.89642C9.55412 5.9923 9.56843 6.08819 9.58847 6.18264C9.61566 6.2957 9.6543 6.4059 9.70296 6.5118C9.7831 6.70786 9.90045 6.88819 10.0464 7.04132L10.118 7.12719L10.2182 7.18443C10.3355 7.28318 10.46 7.37334 10.5903 7.45634C10.7233 7.52504 10.8622 7.58371 11.0053 7.62808L11.1055 7.6567L11.2056 7.67101C11.2715 7.68676 11.3387 7.69677 11.406 7.69964C11.5348 7.71395 11.6636 7.71395 11.7924 7.69964C11.9026 7.69391 12.0128 7.6796 12.1216 7.6567C12.2189 7.63667 12.3148 7.60804 12.4078 7.57083C12.4464 7.55939 12.4851 7.54507 12.5223 7.5279C12.5509 7.51359 12.5652 7.49928 12.5938 7.48497C12.6382 7.4635 12.6811 7.43917 12.7226 7.41341C12.9788 7.25026 13.0547 6.91252 12.8944 6.65491C12.7799 6.48032 12.581 6.38157 12.3734 6.39731Z" fill="#422B0D"/>
<path d="M12.2561 3.93271C12.5523 4.05579 12.4679 4.50516 12.1287 4.44649C11.386 4.29336 10.7305 3.86259 10.2983 3.24005C10.1309 3.01679 10.0021 2.76491 9.91907 2.49872C9.87184 2.36277 9.9434 2.2125 10.0808 2.16527C10.2053 2.12234 10.3427 2.17815 10.4014 2.29693L10.4128 2.31411C10.8264 3.04684 11.4761 3.61643 12.2561 3.93271Z" fill="#422B0D"/>
<defs>
<radialGradient id="paint0_radial_840_60834" cx="0" cy="0" r="1" gradientUnits="userSpaceOnUse" gradientTransform="translate(8.30054 8) scale(8.15166)">
<stop offset="0.5" stop-color="#FDE030"/>
<stop offset="0.92" stop-color="#F7C02B"/>
<stop offset="1" stop-color="#F4A223"/>
</radialGradient>
</defs>
</svg>
