<svg width="64" height="25" viewBox="0 0 64 25" fill="none" xmlns="http://www.w3.org/2000/svg">
<path d="M0 0H51.5C58.4036 0 64 5.59644 64 12.5C64 19.4036 58.4036 25 51.5 25H0V0Z" fill="#00E3A4"/>
<path d="M10.324 18V8.76L10.926 9.418H8.112V8.2H11.71V18H10.324ZM13.6996 18V17.048L17.6896 13.198C18.0443 12.862 18.3056 12.568 18.4736 12.316C18.651 12.0547 18.7676 11.8167 18.8236 11.602C18.889 11.378 18.9216 11.1633 18.9216 10.958C18.9216 10.454 18.7443 10.0573 18.3896 9.768C18.035 9.47867 17.517 9.334 16.8356 9.334C16.313 9.334 15.8416 9.42267 15.4216 9.6C15.0016 9.768 14.6376 10.034 14.3296 10.398L13.3776 9.572C13.751 9.096 14.2503 8.732 14.8756 8.48C15.5103 8.21867 16.2056 8.088 16.9616 8.088C17.643 8.088 18.2356 8.2 18.7396 8.424C19.2436 8.63867 19.631 8.95133 19.9016 9.362C20.1816 9.77267 20.3216 10.258 20.3216 10.818C20.3216 11.1353 20.2796 11.448 20.1956 11.756C20.1116 12.064 19.953 12.3907 19.7196 12.736C19.4863 13.0813 19.1503 13.4687 18.7116 13.898L15.1556 17.328L14.8196 16.782H20.7416V18H13.6996ZM23.3734 18L30.0654 8.2H31.1434L24.4514 18H23.3734ZM24.1574 13.464C23.7094 13.464 23.3128 13.352 22.9674 13.128C22.6221 12.904 22.3514 12.5913 22.1554 12.19C21.9688 11.7887 21.8754 11.322 21.8754 10.79C21.8754 10.258 21.9688 9.79133 22.1554 9.39C22.3514 8.98867 22.6221 8.676 22.9674 8.452C23.3128 8.228 23.7094 8.116 24.1574 8.116C24.6148 8.116 25.0114 8.228 25.3474 8.452C25.6928 8.676 25.9588 8.98867 26.1454 9.39C26.3321 9.79133 26.4254 10.258 26.4254 10.79C26.4254 11.322 26.3321 11.7887 26.1454 12.19C25.9588 12.5913 25.6928 12.904 25.3474 13.128C25.0114 13.352 24.6148 13.464 24.1574 13.464ZM24.1574 12.666C24.5868 12.666 24.9228 12.5027 25.1654 12.176C25.4081 11.84 25.5294 11.378 25.5294 10.79C25.5294 10.202 25.4081 9.74467 25.1654 9.418C24.9228 9.082 24.5868 8.914 24.1574 8.914C23.7374 8.914 23.4014 9.082 23.1494 9.418C22.9068 9.74467 22.7854 10.202 22.7854 10.79C22.7854 11.3687 22.9068 11.826 23.1494 12.162C23.4014 12.498 23.7374 12.666 24.1574 12.666ZM30.3594 18.084C29.9114 18.084 29.5148 17.972 29.1694 17.748C28.8241 17.524 28.5581 17.2113 28.3714 16.81C28.1848 16.4087 28.0914 15.942 28.0914 15.41C28.0914 14.878 28.1848 14.4113 28.3714 14.01C28.5581 13.6087 28.8241 13.296 29.1694 13.072C29.5148 12.848 29.9114 12.736 30.3594 12.736C30.8168 12.736 31.2134 12.848 31.5494 13.072C31.8948 13.296 32.1608 13.6087 32.3474 14.01C32.5434 14.4113 32.6414 14.878 32.6414 15.41C32.6414 15.942 32.5434 16.4087 32.3474 16.81C32.1608 17.2113 31.8948 17.524 31.5494 17.748C31.2134 17.972 30.8168 18.084 30.3594 18.084ZM30.3594 17.286C30.7794 17.286 31.1108 17.1227 31.3534 16.796C31.6054 16.46 31.7314 15.998 31.7314 15.41C31.7314 14.8313 31.6054 14.374 31.3534 14.038C31.1108 13.702 30.7794 13.534 30.3594 13.534C29.9394 13.534 29.6034 13.702 29.3514 14.038C29.1088 14.3647 28.9874 14.822 28.9874 15.41C28.9874 15.998 29.1088 16.46 29.3514 16.796C29.6034 17.1227 29.9394 17.286 30.3594 17.286ZM41.368 18.084C40.6213 18.084 39.9587 17.9207 39.38 17.594C38.8013 17.2673 38.344 16.8193 38.008 16.25C37.672 15.6713 37.504 15.018 37.504 14.29C37.504 13.5527 37.672 12.8993 38.008 12.33C38.344 11.7607 38.8013 11.3173 39.38 11C39.9587 10.6733 40.6213 10.51 41.368 10.51C42.1053 10.51 42.7633 10.6733 43.342 11C43.93 11.3173 44.3873 11.7607 44.714 12.33C45.05 12.89 45.218 13.5433 45.218 14.29C45.218 15.0273 45.05 15.6807 44.714 16.25C44.3873 16.8193 43.93 17.2673 43.342 17.594C42.7633 17.9207 42.1053 18.084 41.368 18.084ZM41.368 16.908C41.844 16.908 42.2687 16.8007 42.642 16.586C43.0247 16.3713 43.3233 16.068 43.538 15.676C43.7527 15.2747 43.86 14.8127 43.86 14.29C43.86 13.758 43.7527 13.3007 43.538 12.918C43.3233 12.526 43.0247 12.2227 42.642 12.008C42.2687 11.7933 41.844 11.686 41.368 11.686C40.892 11.686 40.4673 11.7933 40.094 12.008C39.7207 12.2227 39.422 12.526 39.198 12.918C38.974 13.3007 38.862 13.758 38.862 14.29C38.862 14.8127 38.974 15.2747 39.198 15.676C39.422 16.068 39.7207 16.3713 40.094 16.586C40.4673 16.8007 40.892 16.908 41.368 16.908ZM47.2727 18V9.922C47.2727 9.194 47.4827 8.61533 47.9027 8.186C48.3321 7.74733 48.9387 7.528 49.7227 7.528C50.0121 7.528 50.2874 7.56533 50.5487 7.64C50.8194 7.70533 51.0481 7.81267 51.2347 7.962L50.8287 8.984C50.6887 8.872 50.5301 8.788 50.3527 8.732C50.1754 8.66667 49.9887 8.634 49.7927 8.634C49.4007 8.634 49.1021 8.746 48.8967 8.97C48.6914 9.18467 48.5887 9.50667 48.5887 9.936V10.93L48.6167 11.546V18H47.2727ZM46.0127 11.686V10.58H50.7447V11.686H46.0127ZM52.222 18V9.922C52.222 9.194 52.432 8.61533 52.852 8.186C53.2813 7.74733 53.888 7.528 54.672 7.528C54.9613 7.528 55.2366 7.56533 55.498 7.64C55.7686 7.70533 55.9973 7.81267 56.184 7.962L55.778 8.984C55.638 8.872 55.4793 8.788 55.302 8.732C55.1246 8.66667 54.938 8.634 54.742 8.634C54.35 8.634 54.0513 8.746 53.846 8.97C53.6406 9.18467 53.538 9.50667 53.538 9.936V10.93L53.566 11.546V18H52.222ZM50.962 11.686V10.58H55.694V11.686H50.962Z" fill="#2B2F38"/>
</svg>
