<svg width="20" height="21" viewBox="0 0 20 21" fill="none" xmlns="http://www.w3.org/2000/svg">
<path d="M10 15.0002C11.6569 15.0002 13 13.6571 13 12.0002C13 10.3434 11.6569 9.00023 10 9.00023C8.34315 9.00023 7 10.3434 7 12.0002C7 13.6571 8.34315 15.0002 10 15.0002Z" stroke="#48505E" stroke-width="2" stroke-linecap="round" stroke-linejoin="round"/>
<path d="M1 9.5653C1 8.99094 1 8.70376 1.07403 8.4393C1.1396 8.20503 1.24737 7.98469 1.39203 7.7891C1.55534 7.5683 1.78202 7.39199 2.23539 7.03937L9.0177 1.76424C9.36902 1.49099 9.54468 1.35436 9.73865 1.30184C9.9098 1.2555 10.0902 1.2555 10.2613 1.30184C10.4553 1.35436 10.631 1.49099 10.9823 1.76424L17.7646 7.03937C18.218 7.39199 18.4447 7.5683 18.608 7.7891C18.7526 7.98469 18.8604 8.20503 18.926 8.4393C19 8.70376 19 8.99094 19 9.5653V16.8002C19 17.9203 19 18.4804 18.782 18.9082C18.5903 19.2845 18.2843 19.5905 17.908 19.7822C17.4802 20.0002 16.9201 20.0002 15.8 20.0002H4.2C3.07989 20.0002 2.51984 20.0002 2.09202 19.7822C1.71569 19.5905 1.40973 19.2845 1.21799 18.9082C1 18.4804 1 17.9203 1 16.8002V9.5653Z" stroke="#48505E" stroke-width="2" stroke-linecap="round" stroke-linejoin="round"/>
</svg>
