<svg width="107" height="72" viewBox="0 0 107 72" fill="none" xmlns="http://www.w3.org/2000/svg">
<path d="M43.5006 13.3107C46.5397 13.3107 49.5814 13.37 52.6179 13.2978C57.4966 13.1817 62.2172 12.0671 66.9378 10.9552C73.5212 9.40467 79.887 7.24527 85.9704 4.28868C88.4059 3.10449 90.805 1.84549 93.2223 0.620024C93.4037 0.527147 93.5773 0.41879 93.7664 0.338812C95.2458 -0.293269 95.6966 -0.0765557 96.5257 1.2908C97.9999 3.72367 99.5518 6.1101 101.08 8.50943C102.938 11.4273 104.824 14.3272 106.661 17.258C107.262 18.2177 107.063 18.5969 106.068 19.2032C101.075 22.2449 95.8158 24.781 90.3931 26.9249C84.048 29.4326 77.5941 31.672 70.8552 32.9491C70.7127 32.9774 70.5313 32.962 70.4329 33.0445C70.2567 33.1916 70.052 33.3825 70.0157 33.5837C69.9924 33.7127 70.223 33.9681 70.3914 34.0326C72.5289 34.8685 74.6716 35.6889 76.8194 36.499C77.5448 36.7725 77.7988 37.3349 77.5034 38.1966C76.6432 40.7224 75.7545 43.2378 74.9073 45.7661C73.6767 49.4477 72.4693 53.137 71.2645 56.8288C70.9692 57.7318 70.3836 58.1214 69.4354 57.8969C64.2588 56.6818 58.9967 56.7463 53.7449 56.981C48.0554 57.2339 42.5575 58.6064 37.083 60.095C32.2743 61.403 27.6806 63.2425 23.2606 65.5025C20.0194 67.1589 16.8455 68.9519 13.6743 70.7398C12.0705 71.6453 11.643 71.5912 10.6326 70.0045C9.08582 67.5768 7.55979 65.1336 5.98453 62.724C4.65022 60.6832 3.25632 58.6838 1.90129 56.656C1.33906 55.8123 0.823477 54.9377 0.261255 54.0967C-0.186969 53.4259 -0.0418792 52.8712 0.56957 52.4404C1.30538 51.9192 2.06192 51.4187 2.84178 50.9672C7.89401 48.0494 13.0395 45.3095 18.4052 43.0056C20.68 42.0278 23.0326 41.2358 25.3514 40.3612C25.7064 40.227 26.0691 40.1187 26.424 39.9819C27.7739 39.453 27.7946 39.0996 26.7453 38.0625C25.3048 36.6383 23.8461 35.2168 22.5662 33.656C21.2863 32.0977 20.7526 30.1498 20.3976 28.1943C19.952 25.7253 20.3147 23.3414 21.4081 21.0788C22.8149 18.1661 25.1726 16.2389 28.0356 14.8767C30.3933 13.7544 32.9298 13.3545 35.5155 13.3055C38.1763 13.2565 40.8372 13.2952 43.498 13.2952C43.498 13.3004 43.498 13.3081 43.498 13.3133L43.5006 13.3107Z" fill="#6741FF"/>
<path d="M4.33693 42.1436L4.3162 38.7278C5.97696 39.5663 7.1869 40.0591 9.53684 40.2758C11.9956 40.5131 13.291 40.0384 13.3118 39.1148C13.3118 38.364 12.9879 38.0183 9.88143 37.7603C5.86814 37.4379 3.55966 35.9338 3.55966 33.2919C3.55966 30.3689 6.34228 28.6506 10.4203 28.888C13.0967 29.0376 15.0166 29.7265 16.268 30.2424V33.6583C14.4543 32.7759 12.5138 32.198 10.4203 32.1103C8.56526 32.002 7.35531 32.4328 7.33458 33.2481C7.33458 34.022 7.96158 34.2362 10.226 34.3652C14.843 34.5793 17.1955 36.2769 17.0867 39.1999C16.9779 42.2081 13.9569 43.8206 9.51352 43.4981C7.09622 43.3252 6.08319 42.8093 4.33434 42.1436H4.33693Z" fill="#00E3A4"/>
<path d="M21.3383 43.2821L16.8276 32.3896H20.7968L23.6028 38.5789L25.2635 32.3896H28.6939L30.637 38.5789L33.4844 32.3896H37.4537L32.6631 43.2821H28.9089L27.0098 37.9313L25.1107 43.2821H21.3357H21.3383Z" fill="#00E3A4"/>
<path d="M36.3551 37.8893C36.3551 34.3884 38.9875 32.1748 43.4982 32.1748C48.009 32.1748 50.662 34.3884 50.662 37.8893C50.662 41.3903 48.0297 43.4981 43.4982 43.4981C38.9668 43.4981 36.3551 41.3929 36.3551 37.8893ZM46.8845 37.8687C46.8845 36.4936 45.8482 35.3971 43.4749 35.3971C41.1017 35.3971 40.1301 36.4936 40.1301 37.8687C40.1301 39.2438 41.1224 40.2758 43.4749 40.2758C45.8274 40.2758 46.8845 39.2438 46.8845 37.8687Z" fill="#00E3A4"/>
<path d="M51.5248 37.8893C51.5248 34.3884 54.1572 32.1748 58.6679 32.1748C63.1786 32.1748 65.8317 34.3884 65.8317 37.8893C65.8317 41.3903 63.1993 43.4981 58.6679 43.4981C54.1364 43.4981 51.5248 41.3929 51.5248 37.8893ZM62.0542 37.8687C62.0542 36.4936 61.0178 35.3971 58.6446 35.3971C56.2713 35.3971 55.2997 36.4936 55.2997 37.8687C55.2997 39.2438 56.292 40.2758 58.6446 40.2758C60.9971 40.2758 62.0542 39.2438 62.0542 37.8687Z" fill="#00E3A4"/>
<path d="M66.6918 46.8911V32.3867H70.4667V33.9553C71.1999 33.1607 72.6897 32.2784 74.4359 32.1726C78.4699 31.8501 80.908 34.3423 80.908 37.8458C80.908 41.3494 78.4699 43.8184 74.4359 43.4959C72.6871 43.3875 71.1766 42.549 70.4874 41.7776V46.8911H66.6892H66.6918ZM77.1356 37.8458C77.1356 36.5146 76.0785 35.2246 73.726 35.3975C72.1067 35.5059 70.4252 36.1921 70.4252 37.8046C70.4252 39.417 72.086 40.2323 73.726 40.3406C76.0785 40.5135 77.1356 39.2029 77.1356 37.8484V37.8458Z" fill="#00E3A4"/>
<path d="M81.7733 46.8911V32.3867H85.5483V33.9553C86.2815 33.1607 87.7712 32.2784 89.5175 32.1726C93.5515 31.8501 95.9895 34.3423 95.9895 37.8458C95.9895 41.3494 93.5515 43.8184 89.5175 43.4959C87.7687 43.3875 86.2582 42.549 85.569 41.7776V46.8911H81.7708H81.7733ZM92.2172 37.8458C92.2172 36.5146 91.1601 35.2246 88.8076 35.3975C87.1883 35.5059 85.5068 36.1921 85.5068 37.8046C85.5068 39.417 87.1676 40.2323 88.8076 40.3406C91.1601 40.5135 92.2172 39.2029 92.2172 37.8484V37.8458Z" fill="#00E3A4"/>
<path d="M96.8549 30.3899C96.8549 29.487 97.8265 28.9297 98.8629 28.9297C99.8992 28.9297 100.892 29.4895 100.892 30.3899C100.892 31.2903 99.8992 31.8734 98.8629 31.8734C97.8265 31.8734 96.8549 31.2929 96.8549 30.3899ZM96.9637 43.2818V32.3894H100.762V43.2818H96.9637Z" fill="#00E3A4"/>
</svg>
