<svg width="60" height="40" viewBox="0 0 60 40" fill="none" xmlns="http://www.w3.org/2000/svg">
<path d="M24.3938 7.46423C26.0981 7.46423 27.8038 7.4975 29.5066 7.457C32.2424 7.39189 34.8895 6.7669 37.5367 6.14335C41.2285 5.27386 44.7983 4.06293 48.2097 2.40496C49.5754 1.74091 50.9208 1.03489 52.2763 0.347691C52.378 0.295608 52.4753 0.234845 52.5814 0.189996C53.411 -0.164457 53.6638 -0.0429302 54.1287 0.723845C54.9554 2.08812 55.8257 3.42636 56.6829 4.77184C57.7247 6.4081 58.7824 8.03425 59.8125 9.67775C60.1495 10.2159 60.0377 10.4286 59.4798 10.7686C56.68 12.4743 53.7307 13.8965 50.6897 15.0987C47.1316 16.5049 43.5125 17.7607 39.7335 18.4769C39.6536 18.4928 39.5519 18.4841 39.4967 18.5304C39.3979 18.6128 39.2831 18.7199 39.2627 18.8327C39.2497 18.9051 39.379 19.0483 39.4734 19.0845C40.672 19.5532 41.8736 20.0133 43.078 20.4676C43.4848 20.6209 43.6272 20.9363 43.4616 21.4195C42.9792 22.8359 42.4809 24.2465 42.0058 25.6643C41.3157 27.7288 40.6386 29.7976 39.963 31.8679C39.7974 32.3743 39.4691 32.5927 38.9373 32.4669C36.0344 31.7855 33.0836 31.8216 30.1386 31.9533C26.948 32.0951 23.865 32.8647 20.795 33.6995C18.0984 34.433 15.5225 35.4645 13.0438 36.7319C11.2263 37.6607 9.44647 38.6662 7.66813 39.6688C6.76879 40.1766 6.52906 40.1462 5.96243 39.2564C5.09506 37.8951 4.2393 36.525 3.35594 35.1737C2.6077 34.0294 1.82605 32.9081 1.06619 31.771C0.750907 31.2979 0.461782 30.8075 0.146504 30.3358C-0.104847 29.9597 -0.0234846 29.6486 0.319398 29.407C0.73202 29.1148 1.15626 28.8341 1.59359 28.5809C4.42673 26.9446 7.31217 25.4082 10.3211 24.1163C11.5968 23.5679 12.916 23.1238 14.2163 22.6333C14.4154 22.5581 14.6188 22.4974 14.8178 22.4207C15.5748 22.1241 15.5864 21.9259 14.998 21.3443C14.1902 20.5457 13.3722 19.7485 12.6545 18.8733C11.9367 17.9994 11.6374 16.9071 11.4384 15.8105C11.1885 14.426 11.3919 13.0892 12.005 11.8204C12.7939 10.187 14.1161 9.10628 15.7215 8.3424C17.0436 7.71307 18.466 7.48882 19.916 7.46134C21.4081 7.43385 22.9003 7.45555 24.3924 7.45555C24.3924 7.45844 24.3924 7.46278 24.3924 7.46568L24.3938 7.46423Z" fill="#6741FF"/>
</svg>
