<svg width="32" height="33" viewBox="0 0 32 33" fill="none" xmlns="http://www.w3.org/2000/svg">
<path d="M13.7999 7.09995C13.7999 5.66406 14.9639 4.5 16.3998 4.5C17.8358 4.5 18.9998 5.66406 18.9998 7.09995C18.9998 8.53584 17.8358 9.6999 16.3998 9.6999C14.9639 9.6999 13.7999 8.53584 13.7999 7.09995Z" fill="#48505E"/>
<path d="M13.7999 7.09995C13.7999 5.66406 14.9639 4.5 16.3998 4.5C17.8358 4.5 18.9998 5.66406 18.9998 7.09995C18.9998 8.53584 17.8358 9.6999 16.3998 9.6999C14.9639 9.6999 13.7999 8.53584 13.7999 7.09995Z" stroke="#48505E"/>
<path d="M13.28 22.9598C13.8543 23.3905 13.9707 24.2053 13.54 24.7798L9.64002 29.9797C9.20925 30.554 8.39442 30.6704 7.82005 30.2397C7.24569 29.8089 7.12929 28.994 7.56006 28.4197L11.46 23.2198C11.8908 22.6454 12.7055 22.529 13.28 22.9598Z" fill="#48505E"/>
<path d="M13.28 22.9598C13.8543 23.3905 13.9707 24.2053 13.54 24.7798L9.64002 29.9797C9.20925 30.554 8.39442 30.6704 7.82005 30.2397C7.24569 29.8089 7.12929 28.994 7.56006 28.4197L11.46 23.2198C11.8908 22.6454 12.7055 22.529 13.28 22.9598Z" stroke="#48505E"/>
<path d="M15.3136 11.0179C16.0218 11.1359 16.5002 11.8057 16.3821 12.5139L15.1921 19.6538L18.619 23.0807C18.7178 23.1796 18.8001 23.2936 18.8625 23.4185L21.4624 28.6184C21.7835 29.2606 21.5233 30.0415 20.8811 30.3626C20.2389 30.6837 19.4581 30.4233 19.137 29.7813L16.6315 24.77L12.8807 21.0193C12.5837 20.7224 12.4486 20.3004 12.5176 19.8864L13.8175 12.0865C13.9356 11.3783 14.6053 10.8999 15.3136 11.0179Z" fill="#48505E"/>
<path d="M15.3136 11.0179C16.0218 11.1359 16.5002 11.8057 16.3821 12.5139L15.1921 19.6538L18.619 23.0807C18.7178 23.1796 18.8001 23.2936 18.8625 23.4185L21.4624 28.6184C21.7835 29.2606 21.5233 30.0415 20.8811 30.3626C20.2389 30.6837 19.4581 30.4233 19.137 29.7813L16.6315 24.77L12.8807 21.0193C12.5837 20.7224 12.4486 20.3004 12.5176 19.8864L13.8175 12.0865C13.9356 11.3783 14.6053 10.8999 15.3136 11.0179Z" stroke="#48505E"/>
<path d="M14.7847 11.0388C15.2276 10.9281 15.6963 11.0579 16.0192 11.3808L19.7021 15.0637L23.3109 16.2666C23.992 16.4937 24.3601 17.2299 24.1331 17.9109C23.906 18.5921 23.1698 18.9603 22.4888 18.7332L18.5888 17.4332C18.3973 17.3694 18.2234 17.2619 18.0807 17.1191L14.7013 13.7397L10.7029 14.7393L8.38176 18.221C7.9835 18.8183 7.17639 18.9798 6.57902 18.5816C5.98164 18.1833 5.82021 17.3761 6.21847 16.7788L8.81842 12.8789C8.99781 12.6098 9.27104 12.4172 9.58477 12.3388L14.7847 11.0388Z" fill="#48505E"/>
<path d="M14.7847 11.0388C15.2276 10.9281 15.6963 11.0579 16.0192 11.3808L19.7021 15.0637L23.3109 16.2666C23.992 16.4937 24.3601 17.2299 24.1331 17.9109C23.906 18.5921 23.1698 18.9603 22.4888 18.7332L18.5888 17.4332C18.3973 17.3694 18.2234 17.2619 18.0807 17.1191L14.7013 13.7397L10.7029 14.7393L8.38176 18.221C7.9835 18.8183 7.17639 18.9798 6.57902 18.5816C5.98164 18.1833 5.82021 17.3761 6.21847 16.7788L8.81842 12.8789C8.99781 12.6098 9.27104 12.4172 9.58477 12.3388L14.7847 11.0388Z" stroke="#48505E"/>
</svg>
