<svg width="14" height="14" viewBox="0 0 14 14" fill="none" xmlns="http://www.w3.org/2000/svg">
<path d="M13 3H10.8667C9.74656 3 9.18651 3 8.75869 3.21799C8.38236 3.40973 8.0764 3.7157 7.88465 4.09202C7.66667 4.51984 7.66667 5.0799 7.66667 6.2V7M13 3L11 1M13 3L11 5M5.66667 1H4.2C3.0799 1 2.51984 1 2.09202 1.21799C1.71569 1.40973 1.40973 1.71569 1.21799 2.09202C1 2.51984 1 3.07989 1 4.2V9.8C1 10.9201 1 11.4802 1.21799 11.908C1.40973 12.2843 1.71569 12.5903 2.09202 12.782C2.51984 13 3.07989 13 4.2 13H9.8C10.9201 13 11.4802 13 11.908 12.782C12.2843 12.5903 12.5903 12.2843 12.782 11.908C13 11.4802 13 10.9201 13 9.8V8.33333" stroke="#3E3E3E" stroke-width="1.5" stroke-linecap="round" stroke-linejoin="round"/>
</svg>
