<svg width="20" height="20" viewBox="0 0 20 20" fill="none" xmlns="http://www.w3.org/2000/svg">
<path d="M1.66663 1.6665H2.7551C2.96011 1.6665 3.06262 1.6665 3.14511 1.7042C3.21781 1.73743 3.27941 1.79086 3.32258 1.85813C3.37157 1.93446 3.38607 2.03594 3.41506 2.23889L3.80948 4.99984M3.80948 4.99984L4.68606 11.4427C4.7973 12.2603 4.85292 12.6691 5.04838 12.9768C5.22061 13.2479 5.46753 13.4635 5.75942 13.5976C6.09068 13.7498 6.50325 13.7498 7.32838 13.7498H14.46C15.2454 13.7498 15.6381 13.7498 15.9591 13.6085C16.2421 13.4839 16.4848 13.283 16.6602 13.0284C16.8591 12.7395 16.9326 12.3537 17.0795 11.5821L18.1825 5.79125C18.2343 5.51968 18.2601 5.38389 18.2227 5.27775C18.1898 5.18465 18.1249 5.10624 18.0396 5.05652C17.9423 4.99984 17.8041 4.99984 17.5277 4.99984H3.80948ZM8.33329 17.4998C8.33329 17.9601 7.9602 18.3332 7.49996 18.3332C7.03972 18.3332 6.66663 17.9601 6.66663 17.4998C6.66663 17.0396 7.03972 16.6665 7.49996 16.6665C7.9602 16.6665 8.33329 17.0396 8.33329 17.4998ZM15 17.4998C15 17.9601 14.6269 18.3332 14.1666 18.3332C13.7064 18.3332 13.3333 17.9601 13.3333 17.4998C13.3333 17.0396 13.7064 16.6665 14.1666 16.6665C14.6269 16.6665 15 17.0396 15 17.4998Z" stroke="white" stroke-width="1.66667" stroke-linecap="round" stroke-linejoin="round"/>
</svg>
