<svg width="20" height="19" viewBox="0 0 20 19" fill="none" xmlns="http://www.w3.org/2000/svg">
<path d="M9.28265 0.953072C9.51314 0.486133 9.62838 0.252663 9.78483 0.17807C9.92095 0.113169 10.0791 0.113169 10.2152 0.17807C10.3717 0.252663 10.4869 0.486133 10.7174 0.953072L12.9041 5.38304C12.9721 5.52089 13.0061 5.58982 13.0558 5.64333C13.0999 5.69071 13.1527 5.7291 13.2113 5.75638C13.2776 5.78718 13.3536 5.7983 13.5057 5.82053L18.397 6.53546C18.9121 6.61075 19.1696 6.64839 19.2888 6.77419C19.3925 6.88365 19.4412 7.03405 19.4215 7.18353C19.3988 7.35533 19.2124 7.53694 18.8395 7.90014L15.3014 11.3462C15.1912 11.4536 15.136 11.5073 15.1004 11.5712C15.0689 11.6278 15.0487 11.69 15.0409 11.7543C15.0321 11.8269 15.0451 11.9028 15.0711 12.0545L15.906 16.9219C15.994 17.4352 16.038 17.6919 15.9553 17.8443C15.8833 17.9768 15.7554 18.0697 15.6071 18.0972C15.4366 18.1288 15.2061 18.0076 14.7451 17.7652L10.3724 15.4656C10.2361 15.3939 10.168 15.3581 10.0962 15.344C10.0327 15.3316 9.96734 15.3316 9.90379 15.344C9.83202 15.3581 9.7639 15.3939 9.62766 15.4656L5.25492 17.7652C4.79392 18.0076 4.56341 18.1288 4.39297 18.0972C4.24468 18.0697 4.11672 17.9768 4.04474 17.8443C3.962 17.6919 4.00603 17.4352 4.09407 16.9219L4.92889 12.0545C4.95491 11.9028 4.96793 11.8269 4.95912 11.7543C4.95132 11.69 4.93111 11.6278 4.89961 11.5712C4.86402 11.5073 4.80888 11.4536 4.69859 11.3462L1.16056 7.90014C0.787663 7.53694 0.601215 7.35533 0.578526 7.18353C0.558786 7.03405 0.607554 6.88365 0.711251 6.77419C0.830435 6.64839 1.08797 6.61075 1.60304 6.53546L6.49431 5.82053C6.64642 5.7983 6.72248 5.78718 6.78872 5.75638C6.84736 5.7291 6.90016 5.69071 6.94419 5.64333C6.99391 5.58982 7.02793 5.52089 7.09597 5.38304L9.28265 0.953072Z" fill="#FDB91C"/>
</svg>
