<svg width="32" height="33" viewBox="0 0 32 33" fill="none" xmlns="http://www.w3.org/2000/svg">
<path d="M7.2003 6.76667V4.5M8.29946 18.2342C8.87712 15.9236 9.4664 13.5665 9.4664 13.5665H20.3464M20.3464 13.5665L24.8797 22.6332M20.3464 13.5665L15.587 19.9132C14.3027 21.6255 12.7407 22.6332 10.6003 22.6332H7.2003M16.2668 6.7668H18.0802C19.332 6.7668 20.3468 7.78165 20.3468 9.03347M11.7334 22.6335C11.7334 25.1372 9.70371 27.1668 7.20002 27.1668C4.69633 27.1668 2.66669 25.1372 2.66669 22.6335C2.66669 20.1298 4.69633 18.1001 7.20002 18.1001C9.70371 18.1001 11.7334 20.1298 11.7334 22.6335ZM29.4133 22.6335C29.4133 25.1372 27.3837 27.1668 24.88 27.1668C22.3763 27.1668 20.3467 25.1372 20.3467 22.6335C20.3467 20.1298 22.3763 18.1001 24.88 18.1001C27.3837 18.1001 29.4133 20.1298 29.4133 22.6335ZM4.00002 13.5667H10.4C11.1364 13.5667 11.7334 12.9697 11.7334 12.2333V5.83333C11.7334 5.09695 11.1364 4.5 10.4 4.5H4.00002C3.26364 4.5 2.66669 5.09695 2.66669 5.83333V12.2333C2.66669 12.9697 3.26364 13.5667 4.00002 13.5667Z" stroke="#48505E" stroke-width="2.5" stroke-miterlimit="10" stroke-linecap="round" stroke-linejoin="round"/>
</svg>
