<svg width="16" height="16" viewBox="0 0 16 16" fill="none" xmlns="http://www.w3.org/2000/svg">
<g clip-path="url(#clip0_3201_66375)">
<path d="M4.66668 14.6668V7.3335M1.33334 8.66683V13.3335C1.33334 14.0699 1.9303 14.6668 2.66668 14.6668H11.6175C12.6046 14.6668 13.4441 13.9466 13.5942 12.9709L14.3122 8.30428C14.4986 7.09276 13.5612 6.00016 12.3355 6.00016H10C9.63182 6.00016 9.33334 5.70169 9.33334 5.3335V2.97739C9.33334 2.06949 8.59735 1.3335 7.68945 1.3335C7.4729 1.3335 7.27666 1.46103 7.18871 1.65891L4.84264 6.93759C4.73564 7.17834 4.49689 7.3335 4.23343 7.3335H2.66668C1.9303 7.3335 1.33334 7.93045 1.33334 8.66683Z" stroke="#48505E" stroke-width="1.5" stroke-linecap="round" stroke-linejoin="round"/>
</g>
<defs>
<clipPath id="clip0_3201_66375">
<rect width="16" height="16" fill="white"/>
</clipPath>
</defs>
</svg>
